Coordinates
version=1
nRows=7
nColumns=40
inDegrees=yes

Units are S.I. units (second, meters, Newtons, ...)
Angles are in degrees.

endheader
time	pelvis_tilt	pelvis_list	pelvis_rotation	pelvis_tx	pelvis_ty	pelvis_tz	hip_flexion_r	hip_adduction_r	hip_rotation_r	knee_angle_r	knee_angle_r_beta	ankle_angle_r	subtalar_angle_r	mtp_angle_r	hip_flexion_l	hip_adduction_l	hip_rotation_l	knee_angle_l	knee_angle_l_beta	ankle_angle_l	subtalar_angle_l	mtp_angle_l	lumbar_extension	lumbar_bending	lumbar_rotation	arm_flex_r	arm_add_r	arm_rot_r	elbow_flex_r	pro_sup_r	wrist_flex_r	wrist_dev_r	arm_flex_l	arm_add_l	arm_rot_l	elbow_flex_l	pro_sup_l	wrist_flex_l	wrist_dev_l
      8.66000000	     -1.38127025	     -4.23920458	     -2.64411002	      0.99756171	      0.93571578	      0.44526536	     24.37240014	     -6.65129976	     -5.34695410	     62.62260840	     62.62260840	      3.36279488	    -12.06332960	     -0.19823677	     10.27443226	     -4.48019549	    -10.43787286	     21.16479463	     21.16479463	     14.23644306	     -9.73137583	     -0.29410075	    -10.00234710	      3.92499643	      0.21183116	     -5.65812306	    -15.14054643	     -5.17042540	     26.63447624	     46.33366473	      0.00000000	      0.00000000	      9.18386320	    -15.55732165	     -3.10819169	     51.80236648	     46.60115710	      0.00000000	      0.00000000
      8.67342857	     -1.38603716	     -4.31043378	     -3.04899261	      0.99608621	      0.93662586	      0.44518440	     25.02200495	     -6.44273125	     -5.27864994	     61.16605758	     61.16605758	      3.59683340	    -11.89101684	     -0.26736398	      9.46069951	     -4.47084898	    -10.83198782	     20.31107015	     20.31107015	     14.24639310	     -9.54441918	     -0.23263896	    -10.08483182	      3.88570539	      0.09876217	     -6.41965048	    -15.14616644	     -5.17359092	     26.40551713	     46.33677978	      0.00000000	      0.00000000	     10.19631464	    -15.96061805	     -3.40983842	     52.32943836	     46.64522368	      0.00000000	      0.00000000
      8.68685714	     -1.53341838	     -4.32314655	     -3.43283222	      0.99446805	      0.93700926	      0.44511530	     25.79597728	     -6.25205361	     -5.16402196	     59.62592179	     59.62592179	      3.84263336	    -11.66091692	     -0.20208605	      9.13021911	     -4.45665490	    -11.16676039	     20.05988855	     20.05988855	     14.39541727	     -9.58540114	     -0.25713884	     -9.95458409	      3.80186984	     -0.39412558	     -6.93212844	    -15.17694318	     -5.19335236	     26.29339375	     46.33828841	      0.00000000	      0.00000000	     11.04497340	    -16.48679883	     -3.59231486	     52.67187027	     46.67232827	      0.00000000	      0.00000000
      8.70028571	     -1.43069154	     -4.53075524	     -3.82180259	      0.99316227	      0.93821593	      0.44525690	     26.03386279	     -5.82534590	     -5.18427106	     57.64942490	     57.64942490	      3.93004481	    -11.59002698	     -0.09713301	      7.90872052	     -4.54685518	    -11.65724497	     18.66121148	     18.66121148	     14.30573051	     -9.02173085	     -0.22055771	    -10.23675442	      3.90546825	     -0.17472103	     -7.94392741	    -15.16578754	     -5.25625553	     26.33506680	     46.33078643	      0.00000000	      0.00000000	     12.04201067	    -16.81659246	     -4.05398841	     53.62690414	     46.73442445	      0.00000000	      0.00000000
      8.71371429	     -1.44683347	     -4.58557455	     -4.23306050	      0.99167491	      0.93870781	      0.44543934	     26.40628736	     -5.54496865	     -5.09835385	     55.59686658	     55.59686658	      3.93926845	    -11.36113095	     -0.50064005	      7.13839668	     -4.53892404	    -12.19536688	     17.81280221	     17.81280221	     13.92842631	     -8.81266939	     -1.33598259	    -10.39812252	      3.84047449	     -0.05929721	     -9.37262059	    -15.19047035	     -5.76216778	     28.09959754	     46.27325657	      0.00000000	      0.00000000	     12.82257234	    -17.01459797	     -5.21735542	     55.18997298	     46.86818775	      0.00000000	      0.00000000
      8.72714286	     -1.57288382	     -4.70682554	     -4.55746681	      0.99006699	      0.93896440	      0.44569081	     26.77491708	     -5.18833688	     -5.11887694	     53.30692747	     53.30692747	      4.08381885	    -11.02572598	     -0.28811430	      6.64510351	     -4.60590535	    -12.46611392	     17.24547853	     17.24547853	     13.99493204	     -8.72780817	     -1.36170795	    -10.36990515	      3.87839249	     -0.29149727	     -9.85140697	    -15.14090969	     -5.78051118	     28.10639459	     46.26916288	      0.00000000	      0.00000000	     13.69642645	    -17.53019115	     -5.47003486	     55.63110342	     46.90235350	      0.00000000	      0.00000000
      8.74057143	     -1.60552530	     -4.79973907	     -4.90121090	      0.98853827	      0.93926326	      0.44607608	     26.89924689	     -4.83502880	     -5.12256338	     50.70908420	     50.70908420	      4.21690276	    -10.59618308	     -0.07855462	      5.98599324	     -4.63316062	    -12.80978692	     16.56604367	     16.56604367	     13.99783030	     -8.54772487	     -1.48906057	    -10.47348786	      3.86912995	     -0.31077777	    -10.37745979	    -15.09613766	     -5.82774882	     28.25716301	     46.26011567	      0.00000000	      0.00000000	     14.59303489	    -17.86891928	     -5.81431531	     56.30348038	     46.94730907	      0.00000000	      0.00000000
